<svg xmlns="http://www.w3.org/2000/svg" viewBox="0 0 64 64" width="64" height="64" role="img" aria-label="SAHI castle wall icon"><title>SAHI</title><path d="M8.0 46.0 L8.0 9.0 L17.6 9.0 L17.6 17.0 L27.2 17.0 L27.2 9.0 L36.8 9.0 L36.8 17.0 L46.4 17.0 L46.4 9.0 L56.0 9.0 L56.0 46.0 A11.0 11.0 0 0 1 45.0 57.0 L19.0 57.0 A11.0 11.0 0 0 1 8.0 46.0 Z" fill="#2B57E0"/><g stroke="#FFFFFF" stroke-opacity="0.9" stroke-width="2.2" stroke-linecap="round"><line x1="32" y1="20" x2="32" y2="52"/><line x1="12" y1="36" x2="52" y2="36"/></g><rect x="19.0" y="23.0" width="6" height="6" rx="1.5" fill="#FFFFFF"/><g fill="none" stroke="#FFC93C" stroke-width="2.6" stroke-linecap="round" stroke-linejoin="round"><path d="M16.0 23.5 L16.0 20.0 L19.5 20.0"/><path d="M24.5 20.0 L28.0 20.0 L28.0 23.5"/><path d="M16.0 28.5 L16.0 32.0 L19.5 32.0"/><path d="M24.5 32.0 L28.0 32.0 L28.0 28.5"/></g><rect x="39.0" y="43.0" width="6" height="6" rx="1.5" fill="#FFFFFF"/><g fill="none" stroke="#FFC93C" stroke-width="2.6" stroke-linecap="round" stroke-linejoin="round"><path d="M36.0 43.5 L36.0 40.0 L39.5 40.0"/><path d="M44.5 40.0 L48.0 40.0 L48.0 43.5"/><path d="M36.0 48.5 L36.0 52.0 L39.5 52.0"/><path d="M44.5 52.0 L48.0 52.0 L48.0 48.5"/></g></svg>